HIERARCHY
ROOT SpineBase
{
  OFFSET 0.000000 0.000000 0.000000
  CHANNELS 6 Xposition Yposition Zposition Zrotation Xrotation Yrotation
  JOINT SpineMid
  {
    OFFSET 0.000000 32.145370 0.000000
    CHANNELS 3 Zrotation Xrotation Yrotation
    JOINT SpineShoulder
    {
      OFFSET -0.159944 23.680754 -0.881217
      CHANNELS 3 Zrotation Xrotation Yrotation
      JOINT Neck
      {
        OFFSET -0.075216 7.817470 -0.665260
        CHANNELS 3 Zrotation Xrotation Yrotation
        JOINT Head
        {
          OFFSET -6.131948 12.472952 2.860139
          CHANNELS 3 Zrotation Xrotation Yrotation
          End Site
          {
            OFFSET 0 0 0
          }
        }
      }
      JOINT ShoulderLeft
      {
        OFFSET -10.140774 -6.001824 10.709764
        CHANNELS 3 Zrotation Xrotation Yrotation
        JOINT ElbowLeft
        {
          OFFSET -3.619757 -24.568377 10.431146
          CHANNELS 3 Zrotation Xrotation Yrotation
          JOINT WristLeft
          {
            OFFSET 2.789924 -13.413693 -25.914389
            CHANNELS 3 Zrotation Xrotation Yrotation
            JOINT HandLeft
            {
              OFFSET 3.537322 -5.248164 -9.738586
              CHANNELS 3 Zrotation Xrotation Yrotation
              JOINT HandTipLeft
              {
                OFFSET -1.230008 -0.611661 -5.332203
                CHANNELS 3 Zrotation Xrotation Yrotation
                End Site
                {
                  OFFSET 0 0 0
                }
              }
              JOINT ThumbLeft
              {
                OFFSET -2.960885 4.105147 -4.484727
                CHANNELS 3 Zrotation Xrotation Yrotation
                End Site
                {
                  OFFSET 0 0 0
                }
              }
            }
          }
        }
      }
      JOINT ShoulderRight
      {
        OFFSET 7.302648 -4.258285 -13.695461
        CHANNELS 3 Zrotation Xrotation Yrotation
        JOINT ElbowRight
        {
          OFFSET 6.050350 -23.265694 -4.930242
          CHANNELS 3 Zrotation Xrotation Yrotation
          JOINT WristRight
          {
            OFFSET -16.803825 -15.555909 1.162193
            CHANNELS 3 Zrotation Xrotation Yrotation
            JOINT HandRight
            {
              OFFSET -7.420507 -3.086451 -1.283380
              CHANNELS 3 Zrotation Xrotation Yrotation
              JOINT HandTipRight
              {
                OFFSET -6.917959 -4.525548 0.121739
                CHANNELS 3 Zrotation Xrotation Yrotation
                End Site
                {
                  OFFSET 0 0 0
                }
              }
              JOINT ThumbRight
              {
                OFFSET -4.175114 2.447426 -0.753281
                CHANNELS 3 Zrotation Xrotation Yrotation
                End Site
                {
                  OFFSET 0 0 0
                }
              }
            }
          }
        }
      }
    }
  }
  JOINT HipLeft
  {
    OFFSET -4.216788 -1.324523 1.176106
    CHANNELS 3 Zrotation Xrotation Yrotation
    JOINT KneeLeft
    {
      OFFSET 14.162918 -36.281904 -3.473522
      CHANNELS 3 Zrotation Xrotation Yrotation
      JOINT AnkleLeft
      {
        OFFSET 2.487697 -30.255340 0.915253
        CHANNELS 3 Zrotation Xrotation Yrotation
        JOINT FootLeft
        {
          OFFSET -7.378675 -4.571690 -7.555142
          CHANNELS 3 Zrotation Xrotation Yrotation
          End Site
          {
            OFFSET 0 0 0
          }
        }
      }
    }
  }
  JOINT HipRight
  {
    OFFSET 3.620557 3.018088 -8.237181
    CHANNELS 3 Zrotation Xrotation Yrotation
    JOINT KneeRight
    {
      OFFSET 2.542594 -32.771889 -0.586101
      CHANNELS 3 Zrotation Xrotation Yrotation
      JOINT AnkleRight
      {
        OFFSET 8.962281 -35.513689 6.991732
        CHANNELS 3 Zrotation Xrotation Yrotation
        JOINT FootRight
        {
          OFFSET -8.641397 -4.238017 -9.159626
          CHANNELS 3 Zrotation Xrotation Yrotation
          End Site
          {
            OFFSET 0 0 0
          }
        }
      }
    }
  }
}
MOTION
Frames: 15
Frame Time: 0.033333
26.689243 79.974459 298.108904 4.304388 1.820654 39.476889 -1.159002 1.557196 -39.471459 -0.577209 1.124923 0.054573 -19.905438 0.925682 6.067407 0.000000 0.000000 0.000000 -24.612445 19.522886 -10.851020 -11.021723 -0.940331 61.633705 -10.484650 6.962572 29.096749 13.241687 -17.275513 -31.813171 0.000000 0.000000 0.000000 0.000000 0.000000 0.000000 -84.631783 -1.560408 21.939621 30.645229 -6.593814 -27.263504 28.672117 -2.388680 13.425324 -21.219854 6.615718 -9.826202 0.000000 0.000000 0.000000 0.000000 0.000000 0.000000 -34.902164 -8.241993 -51.244835 43.323730 48.444970 -10.543312 70.864168 -48.425954 75.403505 0.000000 0.000000 0.000000 -7.272214 2.994719 -39.368240 3.211241 0.488737 -0.033152 -0.547416 -2.569764 6.662382 0.000000 0.000000 0.000000
27.303921 79.819646 297.983452 4.784858 2.415544 32.585822 -1.469562 1.392552 -32.603742 -0.490422 0.860505 0.079304 -19.699426 1.935050 6.597407 0.000000 0.000000 0.000000 -40.923831 33.195387 -13.679800 12.228839 -23.548872 74.837358 -5.027186 7.651568 24.689279 15.385659 -14.406679 -24.429518 0.000000 0.000000 0.000000 0.000000 0.000000 0.000000 -85.897786 -1.938359 21.499931 35.633810 -11.209950 -24.936848 19.709354 -2.994250 14.130868 -13.945766 5.851234 -11.011729 0.000000 0.000000 0.000000 0.000000 0.000000 0.000000 -35.297550 -12.807586 -46.166904 43.688147 49.221956 -10.901239 70.696782 -48.414615 75.270591 0.000000 0.000000 0.000000 -9.774258 3.176454 -32.438062 5.158269 0.169964 -0.086479 -0.558405 -2.863911 7.348057 0.000000 0.000000 0.000000
27.513633 79.660514 297.992538 4.789896 2.857080 30.160822 -1.262556 1.348959 -30.196516 -0.380173 0.833732 0.099750 -19.196602 1.922080 6.504093 0.000000 0.000000 0.000000 -55.391996 44.143531 -12.999397 40.643787 -35.765434 90.548344 -0.712663 8.726260 19.860591 17.276857 -9.334561 -15.015809 0.000000 0.000000 0.000000 0.000000 0.000000 0.000000 -85.909099 -2.427372 20.094145 38.508524 -13.012515 -23.050972 10.477482 -3.133134 14.578258 -7.148342 4.514449 -12.106325 0.000000 0.000000 0.000000 0.000000 0.000000 0.000000 -35.552220 -14.654390 -44.600894 44.210591 49.684417 -11.257819 70.724003 -48.444109 75.387354 0.000000 0.000000 0.000000 -11.054771 2.602463 -30.088122 6.702107 1.710020 0.332350 -1.288350 -4.364792 7.600148 0.000000 0.000000 0.000000
27.316461 79.726813 298.170661 4.432083 3.123823 29.333721 -0.885414 1.248844 -29.369080 -0.226900 0.716315 0.119547 -18.532181 2.195554 6.531049 0.000000 0.000000 0.000000 -65.486325 50.017595 -10.796542 63.036829 -38.518910 101.892431 -2.731662 8.169558 21.073095 22.450253 -6.039677 -9.582852 0.000000 0.000000 0.000000 0.000000 0.000000 0.000000 -83.752396 -2.383433 18.874654 39.021905 -14.211485 -21.212267 10.882640 -5.174643 17.589446 -13.128665 8.323944 -13.634585 0.000000 0.000000 0.000000 0.000000 0.000000 0.000000 -35.879917 -15.636230 -44.462414 41.383169 49.770914 -9.349954 71.465121 -47.528715 75.545785 0.000000 0.000000 0.000000 -11.227479 1.837089 -29.364120 7.404970 2.702264 0.581729 -1.920850 -5.169021 7.838904 0.000000 0.000000 0.000000
26.583688 80.083098 298.610513 3.564018 3.054370 31.106425 -0.192617 1.161154 -31.116910 -0.013312 0.583076 0.135603 -17.755806 2.791355 6.745476 0.000000 0.000000 0.000000 -70.241877 52.035568 -9.431707 73.895968 -38.541114 107.133526 -8.615305 0.319859 16.546569 31.602402 2.398900 -2.529880 0.000000 0.000000 0.000000 0.000000 0.000000 0.000000 -80.433653 -2.360566 17.560882 36.858761 -14.425861 -19.647336 17.224425 -7.819853 22.364284 -11.527923 11.579037 -17.061135 0.000000 0.000000 0.000000 0.000000 0.000000 0.000000 -36.035232 -14.754807 -46.193416 46.284437 47.028300 -11.935118 61.551226 -50.092609 62.178536 0.000000 0.000000 0.000000 -9.856706 1.112949 -31.204894 7.154547 3.713713 0.860670 -2.617553 -5.889785 7.821042 0.000000 0.000000 0.000000
26.123873 80.064328 299.021213 3.150327 3.038000 30.779660 -0.025147 0.985266 -30.776044 0.020976 0.566306 0.132048 -17.005381 3.319147 6.912877 0.000000 0.000000 0.000000 -69.275436 51.024916 -9.997676 75.958368 -39.305342 107.778339 -30.453023 -19.479857 -5.272662 54.463102 26.725955 5.609892 0.000000 0.000000 0.000000 0.000000 0.000000 0.000000 -77.964313 -2.402016 16.723550 36.708062 -14.649336 -18.273594 16.853625 -9.969890 26.254206 -10.078074 15.223929 -21.103419 0.000000 0.000000 0.000000 0.000000 0.000000 0.000000 -36.164993 -15.226144 -46.292769 50.066449 48.590216 -14.579974 63.402967 -50.788424 65.408895 0.000000 0.000000 0.000000 -9.255937 0.650177 -30.913122 7.285483 4.497373 1.108902 -3.162975 -6.645665 7.732796 0.000000 0.000000 0.000000
25.641307 79.960759 299.482209 2.749301 2.865987 30.222626 0.056081 0.755165 -30.202467 0.037686 0.602510 0.123570 -16.349092 3.921616 7.098374 0.000000 0.000000 0.000000 -61.930790 46.209012 -12.341323 66.308002 -40.833758 101.995522 -13.028303 -5.235821 10.818471 36.765768 11.987125 8.455783 0.000000 0.000000 0.000000 0.000000 0.000000 0.000000 -75.691733 -2.186700 16.456173 35.558672 -15.591638 -16.998636 17.159191 -10.760117 28.427181 -9.449228 16.427101 -22.833498 0.000000 0.000000 0.000000 0.000000 0.000000 0.000000 -36.049348 -15.715845 -46.078747 54.176811 53.378003 -18.295827 74.235320 -49.071696 81.957452 0.000000 0.000000 0.000000 -8.341382 0.385976 -30.350888 7.070930 4.951839 1.301596 -3.503003 -7.232233 7.578232 0.000000 0.000000 0.000000
25.140838 79.871487 299.963196 2.338732 2.629586 28.727099 0.130429 0.641160 -28.696883 0.078922 0.633658 0.115134 -15.351128 4.475924 7.175134 0.000000 0.000000 0.000000 -60.182159 44.829287 -12.621570 66.552235 -41.813691 101.359233 -12.722808 -4.856738 10.260011 36.691344 13.650345 12.978471 0.000000 0.000000 0.000000 0.000000 0.000000 0.000000 -73.555474 -1.899360 16.312816 34.648640 -17.501628 -15.297484 16.746008 -10.036731 28.386584 -9.222637 16.035144 -22.971003 0.000000 0.000000 0.000000 0.000000 0.000000 0.000000 -35.614603 -16.740353 -45.046855 60.677550 61.778019 -25.142335 87.818666 -42.655981 106.532956 0.000000 0.000000 0.000000 -7.188734 0.182039 -28.828577 6.575426 5.116372 1.450039 -3.679760 -7.710129 7.457375 0.000000 0.000000 0.000000
24.718448 79.738126 300.398017 2.007848 2.386313 28.360654 0.172547 0.579097 -28.326004 0.126524 0.667471 0.107844 -14.303335 4.829827 7.100930 0.000000 0.000000 0.000000 -58.781992 43.898661 -12.695372 66.852227 -42.643547 100.703198 -13.417320 -5.194629 10.869012 38.151252 15.301212 14.908672 0.000000 0.000000 0.000000 0.000000 0.000000 0.000000 -71.468839 -1.682809 16.071133 33.939005 -18.487437 -13.971512 15.546062 -10.243063 29.502687 -7.177250 16.167114 -24.731253 0.000000 0.000000 0.000000 0.000000 0.000000 0.000000 -35.270851 -16.941630 -44.769783 76.121220 73.417997 -41.943850 97.460383 -32.051543 133.603013 0.000000 0.000000 0.000000 -6.195466 0.121466 -28.433633 6.043849 5.332620 1.566977 -3.758655 -8.112620 7.327614 0.000000 0.000000 0.000000
24.404490 79.541891 300.800322 1.769820 2.139902 23.929268 0.138511 0.566104 -23.893408 0.177225 0.679922 0.102740 -13.472858 5.088404 6.999938 0.000000 0.000000 0.000000 -57.551741 43.360820 -12.587800 66.958150 -43.415745 99.931213 -14.256702 -5.826172 11.340552 39.169758 17.007042 17.639366 0.000000 0.000000 0.000000 0.000000 0.000000 0.000000 -69.521487 -1.519623 15.793055 31.992309 -19.826501 -12.586383 13.992466 -8.618337 27.739335 -7.645732 14.221247 -22.798969 0.000000 0.000000 0.000000 0.000000 0.000000 0.000000 -33.869976 -19.639091 -41.106714 149.449488 81.538739 -118.144190 102.624798 -21.591804 160.615161 0.000000 0.000000 0.000000 -5.126211 0.426316 -23.917853 5.567022 4.722085 1.629358 -3.730125 -8.389479 7.252859 0.000000 0.000000 0.000000
24.174189 79.453136 301.120485 1.591889 1.930042 25.215260 0.147240 0.537917 -25.179574 0.206940 0.690718 0.097446 -12.792107 5.161065 6.824879 0.000000 0.000000 0.000000 -56.481325 43.037787 -12.426566 67.329130 -44.327450 99.675513 -14.095168 -5.116163 14.228553 40.277262 18.532610 17.850844 0.000000 0.000000 0.000000 0.000000 0.000000 0.000000 -67.696096 -1.380216 15.497329 31.324186 -20.803884 -11.204358 10.144752 -7.709522 27.163227 -4.942700 12.942469 -23.494466 0.000000 0.000000 0.000000 0.000000 0.000000 0.000000 -33.725275 -18.571774 -41.884205 -154.738467 71.451413 -177.946676 106.978284 -14.186337 -175.616845 0.000000 0.000000 0.000000 -4.511872 0.629713 -25.177672 5.184131 4.784721 1.669264 -3.702799 -8.582711 7.240399 0.000000 0.000000 0.000000
24.023532 79.460941 301.385233 1.478217 1.771906 30.775424 0.186545 0.503109 -30.740464 0.201413 0.696152 0.091199 -12.227162 5.211113 6.676905 0.000000 0.000000 0.000000 -55.733972 43.188707 -12.144893 67.605266 -44.867778 98.972250 -14.926228 -4.788658 21.818562 42.541596 16.541481 15.249750 0.000000 0.000000 0.000000 0.000000 0.000000 0.000000 -65.776461 -1.180945 15.191219 29.711368 -21.001199 -10.458111 7.535193 -7.624817 27.596521 -2.685628 12.249924 -24.453682 0.000000 0.000000 0.000000 0.000000 0.000000 0.000000 -34.415862 -14.724849 -45.974780 -141.555442 61.509579 164.510691 112.278109 -9.217803 -159.827208 0.000000 0.000000 0.000000 -4.295551 0.636724 -30.760508 4.941810 5.317648 1.692375 -3.691123 -8.659535 7.239064 0.000000 0.000000 0.000000
23.906384 79.572446 301.607420 1.352044 1.638582 38.570784 0.281029 0.469554 -38.536366 0.161355 0.711226 0.082383 -11.624854 5.217213 6.526428 0.000000 0.000000 0.000000 -54.876316 43.854773 -11.724703 67.596426 -45.390717 97.870460 -15.088255 -3.152549 31.473163 43.421991 10.617702 8.800628 0.000000 0.000000 0.000000 0.000000 0.000000 0.000000 -64.089493 -1.034166 14.885111 27.735556 -20.380208 -10.392186 6.827049 -8.270299 28.543723 -0.140843 12.710740 -26.609513 0.000000 0.000000 0.000000 0.000000 0.000000 0.000000 -34.800713 -9.349821 -51.574035 -134.575478 56.588952 153.688678 117.315460 -5.832365 -153.133916 0.000000 0.000000 0.000000 -4.316322 0.404013 -38.615358 4.692866 6.243223 1.727711 -3.726495 -8.733523 7.268372 0.000000 0.000000 0.000000
23.890053 79.815479 301.744417 1.314798 1.574679 45.510730 0.337667 0.439372 -45.477013 0.071423 0.704856 0.071650 -11.201993 4.989973 6.301421 0.000000 0.000000 0.000000 -54.335307 44.579257 -11.342919 67.603988 -45.665192 96.931023 -13.734310 1.749085 40.367384 40.192643 3.961292 3.481600 0.000000 0.000000 0.000000 0.000000 0.000000 0.000000 -62.901566 -0.886867 14.723062 26.245258 -19.977084 -10.414821 5.071101 -8.562491 28.917425 1.476763 12.572236 -27.435790 0.000000 0.000000 0.000000 0.000000 0.000000 0.000000 -34.590275 -4.701993 -56.554916 -128.552724 56.450039 144.970126 120.912899 -3.930302 -155.121898 0.000000 0.000000 0.000000 -4.760808 0.173537 -45.625357 4.585297 7.206042 1.748835 -3.753089 -8.715561 7.238541 0.000000 0.000000 0.000000
23.784894 80.039354 301.927656 1.151106 1.427962 51.307979 0.462594 0.377664 -51.273590 -0.010103 0.707449 0.059540 -10.144854 4.905771 5.986241 0.000000 0.000000 0.000000 -53.676232 45.800266 -10.730378 67.448765 -46.230228 96.309837 -13.219881 6.565373 47.730370 36.040561 -2.138908 -0.899586 0.000000 0.000000 0.000000 0.000000 0.000000 0.000000 -61.445917 -0.470768 14.759516 23.530127 -19.346824 -10.934948 5.243294 -8.791820 28.886170 1.093381 12.764317 -27.094266 0.000000 0.000000 0.000000 0.000000 0.000000 0.000000 -33.861505 -0.957289 -60.783241 -133.763590 61.617125 153.784307 117.522529 -4.711261 -161.741849 0.000000 0.000000 0.000000 -5.058787 -0.204416 -51.500567 4.315694 8.137569 1.774675 -3.785508 -8.646704 7.139894 0.000000 0.000000 0.000000
